<svg width="18" height="18" viewBox="0 0 18 18" fill="none" xmlns="http://www.w3.org/2000/svg">
<g opacity="0.56" clip-path="url(#clip0_301_1968)">
<path d="M17.3173 5.73901C17.3173 5.73901 17.1465 4.53305 16.6204 4.00352C15.9542 3.30659 15.2094 3.30318 14.8678 3.26218C12.4217 3.08453 8.74918 3.08453 8.74918 3.08453H8.74235C8.74235 3.08453 5.06981 3.08453 2.62373 3.26218C2.2821 3.30318 1.53734 3.30659 0.87116 4.00352C0.345048 4.53305 0.177648 5.73901 0.177648 5.73901C0.177648 5.73901 0 7.15678 0 8.57113V9.89666C0 11.311 0.174232 12.7288 0.174232 12.7288C0.174232 12.7288 0.345048 13.9347 0.867744 14.4643C1.53392 15.1612 2.4085 15.1373 2.79796 15.2124C4.19865 15.3457 8.74576 15.3867 8.74576 15.3867C8.74576 15.3867 12.4217 15.3798 14.8678 15.2056C15.2094 15.1646 15.9542 15.1612 16.6204 14.4643C17.1465 13.9347 17.3173 12.7288 17.3173 12.7288C17.3173 12.7288 17.4915 11.3144 17.4915 9.89666V8.57113C17.4915 7.15678 17.3173 5.73901 17.3173 5.73901ZM6.93853 11.5057V6.58967L11.6633 9.05625L6.93853 11.5057Z" fill="#090D31"/>
</g>
<defs>
<clipPath id="clip0_301_1968">
<rect width="17.4915" height="17.4915" fill="white" transform="translate(0 0.491516)"/>
</clipPath>
</defs>
</svg>
