<svg width="18" height="18" viewBox="0 0 18 18" fill="none" xmlns="http://www.w3.org/2000/svg">
<g opacity="0.56" clip-path="url(#clip0_301_1967)">
<path d="M5.50266 15.8517C12.1016 15.8517 15.712 10.3832 15.712 5.64239C15.712 5.48865 15.7086 5.3315 15.7017 5.17777C16.404 4.66986 17.0101 4.04074 17.4915 3.31998C16.8374 3.611 16.143 3.80106 15.4318 3.88367C16.1806 3.43485 16.7412 2.72977 17.0098 1.89913C16.3054 2.31659 15.5351 2.61107 14.7318 2.76995C14.1906 2.19488 13.475 1.81412 12.6957 1.68653C11.9164 1.55894 11.1167 1.69163 10.4204 2.06409C9.72404 2.43654 9.16979 3.02802 8.84331 3.74707C8.51684 4.46613 8.43633 5.2727 8.61423 6.0421C7.18792 5.97052 5.79256 5.6 4.51863 4.95456C3.2447 4.30912 2.12062 3.40316 1.21928 2.29543C0.761173 3.08526 0.62099 4.01989 0.827226 4.90937C1.03346 5.79885 1.57064 6.57643 2.32958 7.08407C1.75981 7.06598 1.20252 6.91258 0.703761 6.63654V6.68095C0.70325 7.50982 0.9898 8.31329 1.5147 8.95478C2.0396 9.59627 2.77046 10.0362 3.58303 10.1998C3.05523 10.3442 2.50128 10.3652 1.96404 10.2612C2.19333 10.9741 2.63945 11.5975 3.24014 12.0446C3.84082 12.4917 4.56611 12.7401 5.31476 12.7552C4.04377 13.7535 2.47372 14.2951 0.857495 14.2925C0.57087 14.2921 0.284528 14.2745 0 14.2399C1.64191 15.2933 3.5519 15.8527 5.50266 15.8517Z" fill="#090D31"/>
</g>
<defs>
<clipPath id="clip0_301_1967">
<rect width="17.4915" height="17.4915" fill="white"/>
</clipPath>
</defs>
</svg>
